<?xml version="1.0" encoding="UTF-8" standalone="no"?><svg xmlns="http://www.w3.org/2000/svg" xmlns:xlink="http://www.w3.org/1999/xlink" contentScriptType="application/ecmascript" contentStyleType="text/css" height="715px" preserveAspectRatio="none" style="width:597px;height:715px;background:#FFFFFF;" version="1.1" viewBox="0 0 597 715" width="597px" zoomAndPan="magnify"><defs><filter height="300%" id="fkcxll5uc3ly0" width="300%" x="-1" y="-1"><feGaussianBlur result="blurOut" stdDeviation="2.0"/><feColorMatrix in="blurOut" result="blurOut2" type="matrix" values="0 0 0 0 0 0 0 0 0 0 0 0 0 0 0 0 0 0 .4 0"/><feOffset dx="4.0" dy="4.0" in="blurOut2" result="blurOut3"/><feBlend in="SourceGraphic" in2="blurOut3" mode="normal"/></filter></defs><g><ellipse cx="304.5" cy="20" fill="#000000" filter="url(#fkcxll5uc3ly0)" rx="10" ry="10" style="stroke:none;stroke-width:1.0;"/><rect fill="#FEFECE" filter="url(#fkcxll5uc3ly0)" height="33.9688" rx="12.5" ry="12.5" style="stroke:#A80036;stroke-width:1.5;" width="236" x="186.5" y="50"/><text fill="#000000" font-family="sans-serif" font-size="12" lengthAdjust="spacing" textLength="216" x="196.5" y="71.1387">Push / Commit (Entwicklungsbranch)</text><rect fill="#FEFECE" filter="url(#fkcxll5uc3ly0)" height="33.9688" rx="12.5" ry="12.5" style="stroke:#A80036;stroke-width:1.5;" width="76" x="266.5" y="103.9688"/><text fill="#000000" font-family="sans-serif" font-size="12" lengthAdjust="spacing" textLength="56" x="276.5" y="125.1074">Checkout</text><rect fill="#FEFECE" filter="url(#fkcxll5uc3ly0)" height="33.9688" rx="12.5" ry="12.5" style="stroke:#A80036;stroke-width:1.5;" width="238" x="185.5" y="157.9375"/><text fill="#000000" font-family="sans-serif" font-size="12" lengthAdjust="spacing" textLength="218" x="195.5" y="179.0762">Container-Build und Imageerstellung</text><line style="stroke:#A80036;stroke-width:1.5;" x1="256.5" x2="429" y1="211.9063" y2="211.9063"/><rect fill="#FEFECE" filter="url(#fkcxll5uc3ly0)" height="33.9688" rx="12.5" ry="12.5" style="stroke:#A80036;stroke-width:1.5;" width="221" x="146" y="231.9063"/><text fill="#000000" font-family="sans-serif" font-size="12" lengthAdjust="spacing" textLength="201" x="156" y="253.0449">Ablage des Builds in der Registry</text><rect fill="#FEFECE" filter="url(#fkcxll5uc3ly0)" height="33.9688" rx="12.5" ry="12.5" style="stroke:#A80036;stroke-width:1.5;" width="151" x="181" y="300.875"/><text fill="#000000" font-family="sans-serif" font-size="12" lengthAdjust="spacing" textLength="131" x="191" y="322.0137">Vulnerability Scanning</text><rect fill="#FEFECE" filter="url(#fkcxll5uc3ly0)" height="33.9688" rx="12.5" ry="12.5" style="stroke:#A80036;stroke-width:1.5;" width="68" x="395" y="266.3906"/><text fill="#000000" font-family="sans-serif" font-size="12" lengthAdjust="spacing" textLength="48" x="405" y="287.5293">Cleanup</text><line style="stroke:#A80036;stroke-width:1.5;" x1="304.5" x2="429" y1="354.8438" y2="354.8438"/><rect fill="#FEFECE" filter="url(#fkcxll5uc3ly0)" height="33.9688" rx="12.5" ry="12.5" style="stroke:#A80036;stroke-width:1.5;" width="116" x="246.5" y="374.8438"/><text fill="#000000" font-family="sans-serif" font-size="12" lengthAdjust="spacing" textLength="96" x="256.5" y="395.9824">Tests ausführen</text><rect fill="#000000" filter="url(#fkcxll5uc3ly0)" height="6" rx="2.5" ry="2.5" style="stroke:#000000;stroke-width:1.0;" width="569" x="11" y="428.8125"/><rect fill="#FEFECE" filter="url(#fkcxll5uc3ly0)" height="33.9688" rx="12.5" ry="12.5" style="stroke:#A80036;stroke-width:1.5;" width="207" x="23" y="454.8125"/><text fill="#000000" font-family="sans-serif" font-size="12" lengthAdjust="spacing" textLength="187" x="33" y="475.9512">Deployment Test (Zielzustand)</text><rect fill="#FEFECE" filter="url(#fkcxll5uc3ly0)" height="33.9688" rx="12.5" ry="12.5" style="stroke:#A80036;stroke-width:1.5;" width="81" x="258" y="454.8125"/><text fill="#000000" font-family="sans-serif" font-size="12" lengthAdjust="spacing" textLength="61" x="268" y="475.9512">Unit-Tests</text><rect fill="#FEFECE" filter="url(#fkcxll5uc3ly0)" height="33.9688" rx="12.5" ry="12.5" style="stroke:#A80036;stroke-width:1.5;" width="121" x="367" y="454.8125"/><text fill="#000000" font-family="sans-serif" font-size="12" lengthAdjust="spacing" textLength="101" x="377" y="475.9512">Integration Tests</text><rect fill="#FEFECE" filter="url(#fkcxll5uc3ly0)" height="33.9688" rx="12.5" ry="12.5" style="stroke:#A80036;stroke-width:1.5;" width="70" x="498" y="454.8125"/><text fill="#000000" font-family="sans-serif" font-size="12" lengthAdjust="spacing" textLength="50" x="508" y="475.9512">UI-Tests</text><rect fill="#000000" filter="url(#fkcxll5uc3ly0)" height="6" rx="2.5" ry="2.5" style="stroke:#000000;stroke-width:1.0;" width="569" x="11" y="508.7813"/><rect fill="#FEFECE" filter="url(#fkcxll5uc3ly0)" height="33.9688" rx="12.5" ry="12.5" style="stroke:#A80036;stroke-width:1.5;" width="68" x="270.5" y="534.7813"/><text fill="#000000" font-family="sans-serif" font-size="12" lengthAdjust="spacing" textLength="48" x="280.5" y="555.9199">Cleanup</text><polygon fill="#FEFECE" filter="url(#fkcxll5uc3ly0)" points="256.5,588.75,352.5,588.75,364.5,600.75,352.5,612.75,256.5,612.75,244.5,600.75,256.5,588.75" style="stroke:#A80036;stroke-width:1.5;"/><text fill="#000000" font-family="sans-serif" font-size="11" lengthAdjust="spacing" textLength="96" x="256.5" y="604.5581">Tests erfolgreich</text><text fill="#000000" font-family="sans-serif" font-size="11" lengthAdjust="spacing" textLength="10" x="234.5" y="598.1558">ja</text><text fill="#000000" font-family="sans-serif" font-size="11" lengthAdjust="spacing" textLength="28" x="364.5" y="598.1558">false</text><rect fill="#FEFECE" filter="url(#fkcxll5uc3ly0)" height="33.9688" rx="12.5" ry="12.5" style="stroke:#A80036;stroke-width:1.5;" width="68" x="200.5" y="622.75"/><text fill="#000000" font-family="sans-serif" font-size="12" lengthAdjust="spacing" textLength="48" x="210.5" y="643.8887">Release</text><ellipse cx="374.5" cy="632.75" fill="#FFFFFF" filter="url(#fkcxll5uc3ly0)" rx="10" ry="10" style="stroke:#000000;stroke-width:1.5;"/><line style="stroke:#000000;stroke-width:2.5;" x1="368.3128" x2="380.6872" y1="626.5628" y2="638.9372"/><line style="stroke:#000000;stroke-width:2.5;" x1="380.6872" x2="368.3128" y1="626.5628" y2="638.9372"/><ellipse cx="304.5" cy="687.7188" fill="#FFFFFF" filter="url(#fkcxll5uc3ly0)" rx="11" ry="11" style="stroke:#000000;stroke-width:1.0;"/><ellipse cx="304.5" cy="687.7188" fill="#000000" rx="6" ry="6" style="stroke:#7F7F7F;stroke-width:1.0;"/><line style="stroke:#A80036;stroke-width:1.5;" x1="304.5" x2="304.5" y1="30" y2="50"/><polygon fill="#A80036" points="300.5,40,304.5,50,308.5,40,304.5,44" style="stroke:#A80036;stroke-width:1.0;"/><line style="stroke:#A80036;stroke-width:1.5;" x1="304.5" x2="304.5" y1="83.9688" y2="103.9688"/><polygon fill="#A80036" points="300.5,93.9688,304.5,103.9688,308.5,93.9688,304.5,97.9688" style="stroke:#A80036;stroke-width:1.0;"/><line style="stroke:#A80036;stroke-width:1.5;" x1="304.5" x2="304.5" y1="137.9375" y2="157.9375"/><polygon fill="#A80036" points="300.5,147.9375,304.5,157.9375,308.5,147.9375,304.5,151.9375" style="stroke:#A80036;stroke-width:1.0;"/><line style="stroke:#A80036;stroke-width:1.5;" x1="256.5" x2="256.5" y1="265.875" y2="300.875"/><polygon fill="#A80036" points="252.5,290.875,256.5,300.875,260.5,290.875,256.5,294.875" style="stroke:#A80036;stroke-width:1.0;"/><line style="stroke:#A80036;stroke-width:1.5;" x1="256.5" x2="256.5" y1="213.4063" y2="231.9063"/><polygon fill="#A80036" points="252.5,221.9063,256.5,231.9063,260.5,221.9063,256.5,225.9063" style="stroke:#A80036;stroke-width:1.0;"/><line style="stroke:#A80036;stroke-width:1.5;" x1="429" x2="429" y1="213.4063" y2="266.3906"/><polygon fill="#A80036" points="425,256.3906,429,266.3906,433,256.3906,429,260.3906" style="stroke:#A80036;stroke-width:1.0;"/><line style="stroke:#A80036;stroke-width:1.5;" x1="429" x2="429" y1="300.3594" y2="354.8438"/><polygon fill="#A80036" points="425,344.8438,429,354.8438,433,344.8438,429,348.8438" style="stroke:#A80036;stroke-width:1.0;"/><line style="stroke:#A80036;stroke-width:1.5;" x1="304.5" x2="304.5" y1="191.9063" y2="211.9063"/><polygon fill="#A80036" points="300.5,201.9063,304.5,211.9063,308.5,201.9063,304.5,205.9063" style="stroke:#A80036;stroke-width:1.0;"/><line style="stroke:#A80036;stroke-width:1.5;" x1="304.5" x2="304.5" y1="356.3438" y2="374.8438"/><polygon fill="#A80036" points="300.5,364.8438,304.5,374.8438,308.5,364.8438,304.5,368.8438" style="stroke:#A80036;stroke-width:1.0;"/><line style="stroke:#A80036;stroke-width:1.5;" x1="126.5" x2="126.5" y1="434.8125" y2="454.8125"/><polygon fill="#A80036" points="122.5,444.8125,126.5,454.8125,130.5,444.8125,126.5,448.8125" style="stroke:#A80036;stroke-width:1.0;"/><line style="stroke:#A80036;stroke-width:1.5;" x1="298.5" x2="298.5" y1="434.8125" y2="454.8125"/><polygon fill="#A80036" points="294.5,444.8125,298.5,454.8125,302.5,444.8125,298.5,448.8125" style="stroke:#A80036;stroke-width:1.0;"/><line style="stroke:#A80036;stroke-width:1.5;" x1="427.5" x2="427.5" y1="434.8125" y2="454.8125"/><polygon fill="#A80036" points="423.5,444.8125,427.5,454.8125,431.5,444.8125,427.5,448.8125" style="stroke:#A80036;stroke-width:1.0;"/><line style="stroke:#A80036;stroke-width:1.5;" x1="533" x2="533" y1="434.8125" y2="454.8125"/><polygon fill="#A80036" points="529,444.8125,533,454.8125,537,444.8125,533,448.8125" style="stroke:#A80036;stroke-width:1.0;"/><line style="stroke:#A80036;stroke-width:1.5;" x1="126.5" x2="126.5" y1="488.7813" y2="508.7813"/><polygon fill="#A80036" points="122.5,498.7813,126.5,508.7813,130.5,498.7813,126.5,502.7813" style="stroke:#A80036;stroke-width:1.0;"/><line style="stroke:#A80036;stroke-width:1.5;" x1="298.5" x2="298.5" y1="488.7813" y2="508.7813"/><polygon fill="#A80036" points="294.5,498.7813,298.5,508.7813,302.5,498.7813,298.5,502.7813" style="stroke:#A80036;stroke-width:1.0;"/><line style="stroke:#A80036;stroke-width:1.5;" x1="427.5" x2="427.5" y1="488.7813" y2="508.7813"/><polygon fill="#A80036" points="423.5,498.7813,427.5,508.7813,431.5,498.7813,427.5,502.7813" style="stroke:#A80036;stroke-width:1.0;"/><line style="stroke:#A80036;stroke-width:1.5;" x1="533" x2="533" y1="488.7813" y2="508.7813"/><polygon fill="#A80036" points="529,498.7813,533,508.7813,537,498.7813,533,502.7813" style="stroke:#A80036;stroke-width:1.0;"/><line style="stroke:#A80036;stroke-width:1.5;" x1="304.5" x2="304.5" y1="408.8125" y2="428.8125"/><polygon fill="#A80036" points="300.5,418.8125,304.5,428.8125,308.5,418.8125,304.5,422.8125" style="stroke:#A80036;stroke-width:1.0;"/><line style="stroke:#A80036;stroke-width:1.5;" x1="304.5" x2="304.5" y1="514.7813" y2="534.7813"/><polygon fill="#A80036" points="300.5,524.7813,304.5,534.7813,308.5,524.7813,304.5,528.7813" style="stroke:#A80036;stroke-width:1.0;"/><line style="stroke:#A80036;stroke-width:1.5;" x1="244.5" x2="234.5" y1="600.75" y2="600.75"/><line style="stroke:#A80036;stroke-width:1.5;" x1="234.5" x2="234.5" y1="600.75" y2="622.75"/><polygon fill="#A80036" points="230.5,612.75,234.5,622.75,238.5,612.75,234.5,616.75" style="stroke:#A80036;stroke-width:1.0;"/><line style="stroke:#A80036;stroke-width:1.5;" x1="364.5" x2="374.5" y1="600.75" y2="600.75"/><line style="stroke:#A80036;stroke-width:1.5;" x1="374.5" x2="374.5" y1="600.75" y2="622.75"/><polygon fill="#A80036" points="370.5,612.75,374.5,622.75,378.5,612.75,374.5,616.75" style="stroke:#A80036;stroke-width:1.0;"/><line style="stroke:#A80036;stroke-width:1.5;" x1="234.5" x2="234.5" y1="656.7188" y2="661.7188"/><line style="stroke:#A80036;stroke-width:1.5;" x1="234.5" x2="304.5" y1="661.7188" y2="661.7188"/><line style="stroke:#A80036;stroke-width:1.5;" x1="304.5" x2="304.5" y1="661.7188" y2="676.7188"/><polygon fill="#A80036" points="300.5,666.7188,304.5,676.7188,308.5,666.7188,304.5,670.7188" style="stroke:#A80036;stroke-width:1.0;"/><line style="stroke:#A80036;stroke-width:1.5;" x1="304.5" x2="304.5" y1="568.75" y2="588.75"/><polygon fill="#A80036" points="300.5,578.75,304.5,588.75,308.5,578.75,304.5,582.75" style="stroke:#A80036;stroke-width:1.0;"/><!--MD5=[b92583c42fac39924795df4c7174531f]
@startuml
start
:Push / Commit (Entwicklungsbranch);
:Checkout;
:Container-Build und Imageerstellung;
split
    :Ablage des Builds in der Registry;
    :Vulnerability Scanning;
    detach
split again
    :Cleanup;
end split
:Tests ausführen;
fork
    :Deployment Test (Zielzustand);
fork again
    :Unit-Tests;
fork again
    :Integration Tests;
fork again
    :UI-Tests;
end fork
:Cleanup;
if (Tests erfolgreich) then (ja)
    :Release;
else (false)
    end
endif

stop
@enduml

PlantUML version 1.2021.7(Sun May 23 12:40:07 UTC 2021)
(GPL source distribution)
Java Runtime: Java(TM) SE Runtime Environment
JVM: Java HotSpot(TM) 64-Bit Server VM
Default Encoding: UTF-8
Language: en
Country: US
--></g></svg>